<svg width="1024" height="1024" viewBox="0 0 1024 1024" fill="none" xmlns="http://www.w3.org/2000/svg">
<rect width="1024" height="1024" rx="256" fill="#1E1E1E"/>
<path d="M305.069 686.034L799.248 686.034" stroke="#75FFCD" stroke-width="14" stroke-linecap="round"/>
<path d="M305.069 686.034C67.2068 667.578 155.38 390.757 319.423 442.021" stroke="#75FFCD" stroke-width="14" stroke-linecap="round"/>
<path d="M319.423 442.019C331.726 327.191 559.335 284.129 612.649 409.211" stroke="#75FFCD" stroke-width="14" stroke-linecap="round"/>
<path d="M612.649 409.213C719.277 386.656 791.045 425.616 803.349 524.042" stroke="#75FFCD" stroke-width="14" stroke-linecap="round"/>
<path d="M803.349 524.041C916.128 536.345 914.077 686.033 799.248 686.033" stroke="#75FFCD" stroke-width="14" stroke-linecap="round"/>
<path d="M378 612L378 465.253C378 462.037 379.291 458.956 381.583 456.7L428.577 410.447C430.822 408.238 433.845 407 436.995 407L522 407C528.627 407 534 412.373 534 419V612C534 618.627 528.627 623.999 522 624L390 624C383.373 624 378 618.627 378 612Z" fill="#75FFCD"/>
</svg>
